<svg viewBox="0 0 32 32" fill="none" xmlns="http://www.w3.org/2000/svg">
	<path d="M3,25l2.6-4.2c1.5-2.3,4-3.8,6.8-3.8H19v0c0,2.2-1.8,4-4,4h-2" stroke="currentColor" stroke-width="2" stroke-linecap="round" stroke-linejoin="round" />
	<path d="M15,21h8l1.2-1.6c1.1-1.5,2.9-2.4,4.8-2.4h0l-2.7,4.8c-1.4,2.6-4.2,4.2-7.1,4.2h0c-4.7,0-9.3,1.4-13.2,4l0,0" stroke="currentColor" stroke-width="2" stroke-linecap="round" stroke-linejoin="round" />
	<rect x="5" y="2" width="22" height="12" stroke="currentColor" stroke-width="2" stroke-linecap="round" stroke-linejoin="round" />
	<path d="M27,6c-2.2,0-4-1.8-4-4" stroke="currentColor" stroke-width="2" stroke-linecap="round" stroke-linejoin="round" />
	<path d="M5,10c2.2,0,4,1.8,4,4" stroke="currentColor" stroke-width="2" stroke-linecap="round" stroke-linejoin="round" />
	<circle cx="16" cy="8" r="3" stroke="currentColor" stroke-width="2" stroke-linecap="round" stroke-linejoin="round" />
	<path d="M9,2c0,2.2-1.8,4-4,4" stroke="currentColor" stroke-width="2" stroke-linecap="round" stroke-linejoin="round" />
	<path d="M27,10c-2.2,0-4,1.8-4,4" stroke="currentColor" stroke-width="2" stroke-linecap="round" stroke-linejoin="round" />
</svg>