<svg viewBox="0 0 512 512" xmlns="http://www.w3.org/2000/svg">
    <g fill="currentColor" stroke="none">
        <path d="M398.2 48.23c-13.1 8-34 28.6-54.7 54-11.1 13.7-14.1 18.8-13.1 22.7 1.1 4.6 4.9 7.6 9.5 7.6 5.6 0 6.8-.7 10.3-5.9 6.4-9.4 20.7-26 34.5-40.1l14.3-14.5-.3 129-.2 129-2.3 10.5c-7.1 32.2-21.2 60.3-42 83.7-31.8 35.7-71 55.5-117.9 59.5-50.7 4.3-101.4-14.5-138.4-51.4-52.6-52.6-66.6-131.9-34.9-199.3 23.8-50.7 69-86.2 125.5-98.6 8.9-1.9 14-2.2 48-2.8 33.9-.5 38.4-.8 40.7-2.3 3.7-2.4 5.2-8 3.3-12.4-2.5-6.1-4.1-6.4-36.3-6.4-16 0-33.6.5-39.3 1-93 9.2-166.4 80.6-177.9 173-1.5 12.4-1.2 37.3.6 50.1 12.1 87.2 81.1 156.2 168.3 168.3 21.8 3.1 51.4 1.7 72.5-3.3 49.9-11.9 94.4-44.2 121.8-88.4 15.2-24.4 25.8-56 28.7-86.1.7-7.1 1.1-52.9 1.1-131.5l.1-120.6 14.7 15c8.1 8.2 18.9 20.2 24 26.5 5.1 6.3 10.6 13.2 12.2 15.2 1.7 2 4.2 3.9 5.9 4.3 3.8.8 8.6-1.6 10.6-5.5 3-5.7 1.9-8.6-7.6-20.7-15.5-19.5-38.2-43.7-50.6-53.6-13.8-11.1-20.6-12.4-31.1-6z" />
        <path d="M229.5 179.8c-4 1.5-5 4-5.5 13.4l-.5 9.1-6.5 2.1c-15.3 4.9-23.9 11.7-29.3 23.2-3 6.4-3.2 7.3-3.2 18.7 0 11 .2 12.5 2.8 18 5.4 11.6 16.7 20.1 37 27.9 19.8 7.7 25.3 11.1 28.6 18 2.5 5 2.8 14 .7 18.9-1.8 4.4-7.7 9.4-12.8 10.8-2.3.6-7.9.9-12.3.7-7 -.3-8.9-.7-13.1-3.3-5.5-3.4-8.9-7.9-10.5-13.8-2.2-8.4-10.5-12.6-17.6-9-8.5 4.2-9.9 11.6-4.3 23 5.6 11.3 15.7 19.1 30 22.9 3.6 1 7 2.1 7.6 2.6.7.5 1.4 4.3 1.6 8.4.3 6.9.6 7.9 3.1 10 7.4 6.3 14.7.4 14.7-11.9 0-3.2.5-5.8 1.3-6.4.6-.5 4.1-1.7 7.7-2.7 13.7-3.7 23.7-11.4 28.6-22 3.1-6.8 4.5-17.4 3.4-25.6-2.6-19.8-12.4-29.1-43.4-41.7-7.2-2.9-15.2-6.7-17.8-8.5-15.5-10.5-11.9-35.1 5.7-38.8 7-.9 12.1-.6 17.7 2.9 4.5 2.9 9 9.8 10.3 15.9 1.6 7.4 10.1 11.8 17.9 9.1 6-2.1 8.9-6.9 8.3-13.7-.7-7.1-4.6-15.1-10.3-21.3-5.7-6-11.3-9.4-19.7-12.1-3.3-1-6.5-2.4-6.9-3.1-.4-.7-.8-4.7-.8-9 0-7.3-.2-8-2.9-10.8-3-2.9-5.8-3.5-9.6-1.9z" />
    </g>
</svg>