<?xml version="1.0" standalone="no"?>
<!DOCTYPE svg PUBLIC "-//W3C//DTD SVG 20010904//EN" "http://www.w3.org/TR/2001/REC-SVG-20010904/DTD/svg10.dtd">
<svg version="1.0" xmlns="http://www.w3.org/2000/svg" width="512.000000pt" height="512.000000pt"
    viewBox="0 0 512.000000 512.000000" preserveAspectRatio="xMidYMid meet">

    <g transform="translate(0.000000,512.000000) scale(0.100000,-0.100000)" fill="#fff" stroke="none">
        <path d="M3982 4823 c-131 -80 -340 -286 -547 -540 -111 -137 -141 -188 -131
-227 11 -46 49 -76 95 -76 56 0 68 7 103 59 64 94 207 260 345 401 l143 145
-3 -1290 -2 -1290 -23 -105 c-71 -322 -212 -603 -420 -837 -318 -357 -710
-555 -1179 -595 -507 -43 -1014 145 -1384 514 -526 526 -666 1319 -349 1993
238 507 690 862 1255 986 89 19 140 22 480 28 339 5 384 8 407 23 37 24 52 80
33 124 -25 61 -41 64 -363 64 -160 0 -336 -5 -393 -10 -930 -92 -1664 -806
-1779 -1730 -15 -124 -12 -373 6 -501 121 -872 811 -1562 1683 -1683 218 -31
514 -17 725 33 499 119 944 442 1218 884 152 244 258 560 287 861 7 71 11 529
11 1315 l1 1206 147 -150 c81 -82 189 -202 240 -265 51 -63 106 -132 122 -152
17 -20 42 -39 59 -43 38 -8 86 16 106 55 30 57 19 86 -76 207 -155 195 -382
437 -506 536 -138 111 -206 124 -311 60z" />
        <path d="M2295 3320 c-40 -15 -50 -40 -55 -134 l-5 -91 -65 -21 c-153 -49
-239 -117 -293 -232 -30 -64 -32 -73 -32 -187 0 -110 2 -125 28 -180 54 -116
167 -201 370 -279 198 -77 253 -111 286 -180 25 -50 28 -140 7 -189 -18 -44
-77 -94 -128 -108 -23 -6 -79 -9 -123 -7 -70 3 -89 7 -131 33 -55 34 -89 79
-105 138 -22 84 -105 126 -176 90 -85 -42 -99 -116 -43 -230 56 -113 157 -191
300 -229 36 -10 70 -21 76 -26 7 -5 14 -43 16 -84 3 -69 6 -79 31 -100 74 -63
147 -4 147 119 0 32 5 58 13 64 6 5 41 17 77 27 137 37 237 114 286 220 31 68
45 174 34 256 -26 198 -124 291 -434 417 -72 29 -152 67 -178 85 -155 105
-119 351 57 388 70 15 121 6 177 -29 45 -29 90 -98 103 -159 16 -74 101 -118
179 -91 60 21 89 69 83 137 -7 71 -46 151 -103 213 -57 60 -113 94 -197 121
-33 10 -65 24 -69 31 -4 7 -8 47 -8 90 0 73 -2 80 -29 108 -30 29 -58 35 -96
19z" />
    </g>
</svg>