<svg fill="none" xmlns="http://www.w3.org/2000/svg" viewBox="3.62 3.65 32.77 32.75">
    <path
        d="M33.3334 16.02V24.02C33.3334 30.6867 30.6667 33.3534 24 33.3534H16C9.33335 33.3534 6.66669 30.6867 6.66669 24.02V16.02C6.66669 9.35335 9.33335 6.68668 16 6.68668H24"
        stroke="#fff" stroke-width="2.5" stroke-linecap="round" stroke-linejoin="round" />
    <path
        d="M21.7333 26.0167H19.2267C17.4534 26.0167 16 24.5233 16 22.6833C16 22.1367 16.4533 21.6833 17 21.6833C17.5467 21.6833 18 22.1367 18 22.6833C18 23.4167 18.5467 24.0167 19.2267 24.0167H21.7333C22.2533 24.0167 22.6667 23.55 22.6667 22.9767C22.6667 22.2567 22.4667 22.15 22.0133 21.99L18 20.59C17.1467 20.2967 16 19.67 16 17.71C16 16.0433 17.32 14.67 18.9333 14.67H21.44C23.2133 14.67 24.6667 16.1633 24.6667 18.0033C24.6667 18.55 24.2133 19.0033 23.6667 19.0033C23.12 19.0033 22.6667 18.55 22.6667 18.0033C22.6667 17.27 22.12 16.67 21.44 16.67H18.9333C18.4133 16.67 18 17.1367 18 17.71C18 18.43 18.2 18.5367 18.6533 18.6967L22.6667 20.0967C23.52 20.39 24.6667 21.0167 24.6667 22.9767C24.6667 24.6567 23.3467 26.0167 21.7333 26.0167Z"
        fill="#fff" />
    <path
        d="M20.3333 27.35C19.7866 27.35 19.3333 26.8967 19.3333 26.35V14.35C19.3333 13.8033 19.7866 13.35 20.3333 13.35C20.88 13.35 21.3333 13.8033 21.3333 14.35V26.35C21.3333 26.8967 20.88 27.35 20.3333 27.35Z"
        fill="#fff" />
    <path
        d="M31.6666 14.6833H26.3333C25.7866 14.6833 25.3333 14.23 25.3333 13.6833V8.35001C25.3333 7.80335 25.7866 7.35001 26.3333 7.35001C26.88 7.35001 27.3333 7.80335 27.3333 8.35001V12.6833H31.6666C32.2133 12.6833 32.6666 13.1367 32.6666 13.6833C32.6666 14.23 32.2133 14.6833 31.6666 14.6833Z"
        fill="#fff" />
    <path
        d="M26.3333 14.6834C26.0799 14.6834 25.8266 14.59 25.6266 14.39C25.2399 14.0034 25.2399 13.3634 25.6266 12.9767L32.2933 6.31002C32.6799 5.92335 33.3199 5.92335 33.7066 6.31002C34.0933 6.69669 34.0933 7.33668 33.7066 7.72335L27.0399 14.39C26.8399 14.59 26.5866 14.6834 26.3333 14.6834Z"
        fill="#fff" />
</svg>